<?xml version="1.0" encoding="utf-8"?>
<!-- Generator: Adobe Illustrator 16.0.0, SVG Export Plug-In . SVG Version: 6.00 Build 0)  -->
<!DOCTYPE svg PUBLIC "-//W3C//DTD SVG 1.1//EN" "http://www.w3.org/Graphics/SVG/1.1/DTD/svg11.dtd">
<svg version="1.1" id="Capa_1" xmlns="http://www.w3.org/2000/svg" xmlns:xlink="http://www.w3.org/1999/xlink" x="0px" y="0px"
	 width="512px" height="512px" viewBox="0 0 512 512" enable-background="new 0 0 512 512" xml:space="preserve">
<g>
	<path d="M146.658,191.04c-12.141-11.251-26.524-16.881-43.15-16.881c-16.628,0-30.959,5.63-42.994,16.881
		C48.171,202.71,42,216.905,42,233.633c0,16.933,6.065,31.154,18.209,42.667c12.135,11.516,26.57,17.269,43.299,17.269
		c16.625,0,31.059-5.804,43.302-17.422c12.24-11.614,18.359-25.785,18.359-42.513C165.169,216.905,158.998,202.71,146.658,191.04z
		 M132.807,262.671c-8.212,8.003-17.977,12.002-29.299,12.002s-21.092-3.975-29.302-11.925c-8.21-7.949-12.314-17.653-12.314-29.115
		c0-11.667,4.051-21.448,12.162-29.349c8.113-7.896,17.927-11.849,29.455-11.849s21.344,3.979,29.455,11.925
		c8.106,7.95,12.164,17.707,12.164,29.271C145.127,244.988,141.018,254.671,132.807,262.671z"/>
	<rect x="325.318" y="156.735" width="20.913" height="136.833"/>
	<rect x="361.784" y="179.283" width="21.166" height="21.269"/>
	<rect x="361.784" y="212.596" width="21.166" height="80.971"/>
	<polygon points="266.897,251.678 243.713,204.139 220.53,251.678 199.748,212.551 174.606,212.551 220.877,293.568 
		243.713,247.993 266.553,293.568 312.823,212.551 287.678,212.551 	"/>
	<path d="M433.777,212.471c-9.774,0-18.619,3.892-24.984,10.171l-10.129-10.171v34.208v46.889h21.042v-46.625
		c0-7.513,6.301-13.604,14.071-13.604c7.771,0,14.07,6.091,14.07,13.604v46.625h21.042v-46.889
		C468.889,227.787,453.168,212.471,433.777,212.471z"/>
</g>
</svg>
