<?xml version="1.0" encoding="utf-8"?>
<!-- Generator: Adobe Illustrator 16.0.0, SVG Export Plug-In . SVG Version: 6.00 Build 0)  -->
<!DOCTYPE svg PUBLIC "-//W3C//DTD SVG 1.1//EN" "http://www.w3.org/Graphics/SVG/1.1/DTD/svg11.dtd">
<svg version="1.1" id="Capa_1" xmlns="http://www.w3.org/2000/svg" xmlns:xlink="http://www.w3.org/1999/xlink" x="0px" y="0px"
	 width="812px" height="180px" viewBox="0 112 812 180" enable-background="new 0 0 512 512" xml:space="preserve">
<g>
	<path d="M523.826,173.896c-8.544-7.915-18.659-11.875-30.357-11.875c-11.695,0-21.775,3.96-30.242,11.875
		c-8.685,8.21-13.023,18.196-13.023,29.963c0,11.911,4.267,21.915,12.808,30.013c8.536,8.1,18.692,12.147,30.458,12.147
		c11.695,0,21.851-4.082,30.462-12.255c8.612-8.17,12.915-18.138,12.915-29.905S532.504,182.107,523.826,173.896z M514.081,224.288
		c-5.777,5.627-12.646,8.441-20.612,8.441c-7.962,0-14.834-2.796-20.612-8.389c-5.774-5.591-8.661-12.419-8.661-20.48
		c0-8.207,2.85-15.089,8.555-20.647c5.707-5.553,12.612-8.334,20.719-8.334c8.11,0,15.017,2.798,20.723,8.39
		c5.702,5.592,8.558,12.455,8.558,20.591C522.749,211.846,519.857,218.659,514.081,224.288z"/>
	<rect x="649.505" y="149.764" width="14.709" height="96.255"/>
	<rect x="675.156" y="165.626" width="14.89" height="14.963"/>
	<rect x="675.156" y="189.06" width="14.89" height="56.959"/>
	<polygon points="608.406,216.554 592.097,183.112 575.789,216.554 561.169,189.029 543.485,189.029 576.033,246.021
		592.097,213.961 608.164,246.021 640.714,189.029 623.025,189.029 	"/>
	<path d="M725.798,188.973c-6.874,0-13.098,2.737-17.575,7.155l-7.125-7.155v24.064v32.984h14.803v-32.799
		c0-5.285,4.433-9.568,9.897-9.568c5.467,0,9.898,4.284,9.898,9.568v32.799H750.5v-32.984
		C750.5,199.748,739.441,188.973,725.798,188.973z"/>
	<path d="M68.419,193.392c-1.669-1.466-3.774-2.598-6.315-3.395c-2.542-0.796-5.532-1.195-8.97-1.195H37.091v54.351h7.32v-20.33
		h8.723c3.287,0,6.188-0.423,8.705-1.271c2.516-0.847,4.627-2.029,6.334-3.546c1.707-1.517,3.002-3.325,3.888-5.424
		c0.885-2.098,1.328-4.412,1.328-6.941c0-2.553-0.412-4.867-1.233-6.94C71.333,196.629,70.088,194.859,68.419,193.392z
		 M65.233,210.232c-0.556,1.391-1.384,2.586-2.484,3.584c-1.1,0.999-2.453,1.777-4.058,2.333c-1.606,0.557-3.458,0.834-5.557,0.834
		h-8.723v-22.378h8.723c4.349,0,7.592,0.974,9.729,2.921c2.137,1.947,3.205,4.652,3.205,8.116
		C66.068,207.311,65.789,208.842,65.233,210.232z"/>
	<path d="M108.586,209.511c-1.593-1.719-3.515-3.047-5.765-3.983c-2.251-0.935-4.779-1.403-7.585-1.403
		c-2.833,0-5.38,0.468-7.643,1.403c-2.264,0.936-4.191,2.264-5.784,3.983c-1.593,1.72-2.813,3.799-3.66,6.239
		c-0.848,2.44-1.271,5.165-1.271,8.174c0,3.034,0.423,5.765,1.271,8.192c0.847,2.427,2.067,4.501,3.66,6.22
		c1.593,1.72,3.521,3.041,5.784,3.963c2.263,0.923,4.81,1.384,7.643,1.384c2.807,0,5.334-0.461,7.585-1.384
		c2.25-0.922,4.172-2.244,5.765-3.963c1.593-1.719,2.812-3.793,3.66-6.22c0.847-2.427,1.271-5.158,1.271-8.192
		c0-3.009-0.424-5.733-1.271-8.174C111.398,213.311,110.178,211.231,108.586,209.511z M103.731,234.601
		c-1.872,2.541-4.703,3.812-8.496,3.812c-3.844,0-6.708-1.271-8.591-3.812c-1.884-2.542-2.826-6.087-2.826-10.639
		c0-2.275,0.233-4.317,0.702-6.125c0.467-1.808,1.176-3.332,2.124-4.57s2.136-2.187,3.565-2.845
		c1.428-0.657,3.104-0.986,5.026-0.986c3.792,0,6.624,1.277,8.496,3.831c1.871,2.554,2.807,6.119,2.807,10.695
		C106.537,228.513,105.602,232.059,103.731,234.601z"/>
	<path d="M168.132,205.131c-0.354,0.266-0.594,0.601-0.721,1.005l-7.51,24.729c-0.228,0.91-0.436,1.789-0.625,2.636
		c-0.19,0.848-0.348,1.688-0.474,2.522c-0.203-0.834-0.417-1.682-0.645-2.542c-0.228-0.859-0.48-1.731-0.758-2.617l-7.927-24.881
		c-0.127-0.379-0.354-0.695-0.683-0.948c-0.329-0.252-0.746-0.379-1.251-0.379h-2.958c-0.455,0-0.841,0.127-1.157,0.379
		c-0.317,0.253-0.538,0.569-0.664,0.948l-8.117,24.881c-0.278,0.885-0.537,1.758-0.777,2.617c-0.241,0.86-0.474,1.707-0.702,2.542
		c-0.253-1.618-0.594-3.338-1.024-5.158l-7.358-24.729c-0.126-0.379-0.373-0.708-0.739-0.986c-0.367-0.278-0.815-0.417-1.347-0.417
		h-5.31l12.44,38.421h5.083c0.784,0,1.29-0.43,1.517-1.29l8.648-26.019c0.202-0.607,0.366-1.208,0.493-1.802
		c0.126-0.594,0.252-1.182,0.379-1.764c0.126,0.582,0.252,1.17,0.379,1.764c0.126,0.594,0.291,1.182,0.493,1.764l8.496,26.057
		c0.252,0.86,0.708,1.29,1.366,1.29h5.348l12.44-38.421h-5.083C168.903,204.732,168.486,204.865,168.132,205.131z"/>
	<path d="M207.748,208.62c-1.429-1.454-3.124-2.566-5.083-3.337c-1.96-0.771-4.09-1.157-6.391-1.157c-2.782,0-5.285,0.487-7.51,1.46
		c-2.225,0.974-4.109,2.313-5.651,4.021c-1.542,1.707-2.725,3.723-3.546,6.049c-0.822,2.327-1.233,4.83-1.233,7.51
		c0,3.313,0.455,6.246,1.366,8.799c0.91,2.554,2.181,4.697,3.812,6.429s3.565,3.047,5.803,3.944
		c2.238,0.897,4.684,1.346,7.339,1.346c1.391,0,2.794-0.12,4.21-0.36c1.416-0.24,2.788-0.601,4.115-1.081
		c1.328-0.48,2.573-1.094,3.736-1.84c1.163-0.745,2.162-1.624,2.997-2.636l-1.896-2.465c-0.303-0.43-0.733-0.645-1.29-0.645
		c-0.43,0-0.942,0.196-1.536,0.588c-0.594,0.393-1.334,0.815-2.219,1.271c-0.885,0.455-1.941,0.878-3.167,1.271
		c-1.227,0.392-2.687,0.588-4.381,0.588c-1.82,0-3.464-0.297-4.931-0.892c-1.467-0.594-2.73-1.492-3.792-2.693
		c-1.062-1.201-1.891-2.699-2.484-4.494c-0.595-1.795-0.929-3.907-1.005-6.334h25.678c0.631,0,1.062-0.176,1.29-0.531
		c0.228-0.354,0.341-1.062,0.341-2.124c0-2.731-0.405-5.164-1.214-7.301C210.295,211.869,209.177,210.074,207.748,208.62z
		 M185.238,219.752c0.456-3.337,1.625-5.948,3.509-7.832c1.883-1.883,4.443-2.826,7.68-2.826c1.542,0,2.92,0.26,4.134,0.777
		c1.214,0.519,2.244,1.252,3.091,2.2c0.847,0.948,1.491,2.073,1.934,3.375c0.442,1.303,0.664,2.737,0.664,4.305H185.238z"/>
	<path d="M237.958,204.05c-2.554,0-4.716,0.74-6.485,2.219c-1.771,1.479-3.262,3.534-4.476,6.164l-0.455-5.841
		c-0.102-0.683-0.291-1.163-0.569-1.441c-0.279-0.278-0.784-0.417-1.517-0.417h-3.869v38.421h6.79V218.88
		c0.48-1.314,1.018-2.484,1.612-3.508c0.594-1.024,1.264-1.884,2.01-2.579c0.746-0.695,1.593-1.22,2.541-1.574
		c0.948-0.354,2.029-0.531,3.243-0.531c0.859,0,1.631,0.076,2.313,0.228c0.683,0.151,1.201,0.228,1.555,0.228
		c0.606,0,0.986-0.316,1.138-0.948l0.493-5.044c-0.582-0.379-1.246-0.657-1.991-0.834
		C239.545,204.138,238.767,204.05,237.958,204.05z"/>
	<path d="M273.858,208.62c-1.428-1.454-3.123-2.566-5.082-3.337c-1.959-0.771-4.09-1.157-6.391-1.157
		c-2.781,0-5.285,0.487-7.51,1.46c-2.225,0.974-4.109,2.313-5.651,4.021c-1.542,1.707-2.725,3.723-3.546,6.049
		c-0.822,2.327-1.233,4.83-1.233,7.51c0,3.313,0.455,6.246,1.366,8.799c0.91,2.554,2.181,4.697,3.812,6.429s3.565,3.047,5.803,3.944
		c2.237,0.897,4.685,1.346,7.339,1.346c1.391,0,2.793-0.12,4.211-0.36c1.414-0.24,2.787-0.601,4.115-1.081
		c1.326-0.48,2.572-1.094,3.734-1.84c1.164-0.745,2.162-1.624,2.996-2.636l-1.895-2.465c-0.305-0.43-0.734-0.645-1.291-0.645
		c-0.43,0-0.941,0.196-1.535,0.588c-0.596,0.393-1.334,0.815-2.219,1.271c-0.887,0.455-1.941,0.878-3.168,1.271
		s-2.686,0.588-4.381,0.588c-1.82,0-3.463-0.297-4.93-0.892c-1.467-0.594-2.73-1.492-3.793-2.693
		c-1.062-1.201-1.891-2.699-2.484-4.494c-0.595-1.795-0.929-3.907-1.005-6.334h25.677c0.633,0,1.062-0.176,1.289-0.531
		c0.229-0.354,0.342-1.062,0.342-2.124c0-2.731-0.404-5.164-1.213-7.301C276.405,211.869,275.285,210.074,273.858,208.62z
		 M251.347,219.752c0.456-3.337,1.625-5.948,3.509-7.832c1.882-1.883,4.443-2.826,7.681-2.826c1.541,0,2.92,0.26,4.133,0.777
		c1.215,0.519,2.244,1.252,3.092,2.2c0.846,0.948,1.492,2.073,1.934,3.375c0.443,1.303,0.664,2.737,0.664,4.305H251.347z"/>
	<path d="M311.73,208.563c-1.315-1.416-2.813-2.522-4.495-3.319s-3.697-1.195-6.049-1.195c-2.579,0-4.899,0.512-6.96,1.536
		c-2.062,1.024-3.8,2.434-5.216,4.229c-1.416,1.795-2.503,3.913-3.262,6.353c-0.759,2.44-1.138,5.076-1.138,7.908
		c0,3.186,0.342,6.006,1.024,8.458c0.683,2.453,1.655,4.501,2.92,6.145c1.265,1.644,2.794,2.889,4.59,3.736
		c1.795,0.847,3.793,1.271,5.992,1.271c2.756,0,5.184-0.606,7.282-1.82s3.97-2.807,5.613-4.779l0.607,4.665
		c0.252,0.936,0.859,1.403,1.82,1.403h4.021v-55.868h-6.751V208.563z M311.73,232.42c-1.392,1.846-2.915,3.275-4.57,4.286
		c-1.657,1.012-3.598,1.517-5.822,1.517c-1.543,0-2.921-0.266-4.135-0.796c-1.213-0.531-2.237-1.372-3.071-2.522
		c-0.835-1.15-1.467-2.617-1.896-4.399c-0.431-1.783-0.646-3.926-0.646-6.429c0-4.728,0.961-8.369,2.883-10.923
		c1.922-2.554,4.665-3.831,8.23-3.831c1.82,0,3.464,0.335,4.931,1.005c1.466,0.67,2.832,1.853,4.097,3.546V232.42z"/>
	<path d="M378.596,209.151c-1.265-1.631-2.801-2.876-4.607-3.736c-1.809-0.859-3.838-1.29-6.088-1.29
		c-2.655,0-5.001,0.557-7.036,1.669c-2.035,1.113-3.862,2.604-5.48,4.476v-22.984h-6.789v55.868h4.362
		c0.96,0,1.542-0.48,1.744-1.441l0.342-3.489c1.289,1.745,2.8,3.091,4.532,4.04c1.731,0.948,3.862,1.422,6.391,1.422
		c2.554,0,4.855-0.5,6.903-1.498s3.786-2.402,5.215-4.21c1.429-1.808,2.522-3.988,3.281-6.542c0.758-2.554,1.138-5.386,1.138-8.496
		c0-2.907-0.336-5.524-1.005-7.851C380.827,212.76,379.861,210.782,378.596,209.151z M372.642,234.62
		c-1.922,2.554-4.69,3.831-8.307,3.831c-1.77,0-3.395-0.341-4.874-1.024c-1.479-0.683-2.838-1.858-4.077-3.527v-18.585
		c1.391-1.845,2.901-3.274,4.533-4.286c1.631-1.011,3.546-1.517,5.746-1.517c3.16,0,5.594,1.106,7.301,3.318
		c1.707,2.213,2.561,5.67,2.561,10.374C375.525,228.261,374.563,232.066,372.642,234.62z"/>
	<path d="M416.658,205.131c-0.367,0.266-0.626,0.601-0.778,1.005l-9.975,24.161c-0.405,1.062-0.784,2.187-1.138,3.375
		c-0.279-1.163-0.62-2.276-1.024-3.338l-10.278-24.198c-0.127-0.354-0.36-0.676-0.702-0.967c-0.341-0.291-0.803-0.437-1.384-0.437
		h-5.841l15.854,36.184l-7.017,15.247h5.007c0.707,0,1.232-0.152,1.573-0.455c0.342-0.303,0.626-0.708,0.854-1.214l21.43-49.762
		h-5.348C417.436,204.732,417.025,204.865,416.658,205.131z"/>
</g>
</svg>
