<?xml version="1.0" encoding="utf-8"?>
<!-- Generator: Adobe Illustrator 16.0.0, SVG Export Plug-In . SVG Version: 6.00 Build 0)  -->
<!DOCTYPE svg PUBLIC "-//W3C//DTD SVG 1.1//EN" "http://www.w3.org/Graphics/SVG/1.1/DTD/svg11.dtd">
<svg version="1.1" id="Capa_1" xmlns="http://www.w3.org/2000/svg" xmlns:xlink="http://www.w3.org/1999/xlink" x="0px" y="0px"
	 width="512px" height="512px" viewBox="0 0 512 512" enable-background="new 0 0 512 512" xml:space="preserve">
<g>
</g>
<g>
	<path d="M131.037,205.369c-9.352,0-17.312,3.206-23.895,9.612c-6.578,6.407-9.865,14.343-9.865,23.808
		c0,9.297,3.329,17.17,9.989,23.619c6.661,6.449,14.586,9.674,23.771,9.674c9.185,0,17.106-3.244,23.769-9.736
		c6.66-6.489,9.993-14.345,9.993-23.557c0-9.383-3.29-17.297-9.868-23.747C148.353,208.596,140.388,205.369,131.037,205.369z"/>
	<path d="M254.293,151.035H43.086v204.872l211.207-27.469L465.5,355.906V151.035H254.293z M166.165,273.275
		c-9.932,9.426-21.642,14.136-35.128,14.136c-13.57,0-25.282-4.669-35.126-14.009c-9.851-9.34-14.771-20.877-14.771-34.613
		c0-13.57,5.006-25.085,15.019-34.553c9.764-9.128,21.39-13.695,34.879-13.695c13.488,0,25.156,4.567,35.005,13.695
		c10.01,9.468,15.018,20.983,15.018,34.553C181.059,252.358,176.094,263.854,166.165,273.275z M263.304,287.411l-18.528-36.974
		l-18.525,36.974l-37.536-65.725h20.396l16.86,31.74l18.806-38.565l18.809,38.565l16.858-31.74h20.397L263.304,287.411z
		 M327.942,287.411h-16.967V176.406h16.967V287.411z M357.73,287.411h-17.17v-65.689h17.17V287.411z M357.73,211.952h-17.17v-17.253
		h17.17V211.952z M427.446,287.411h-17.069v-37.825c0-6.094-5.111-11.034-11.415-11.034c-6.305,0-11.414,4.94-11.414,11.034v37.825
		h-17.07v-38.039v-27.75l8.216,8.25c5.165-5.095,12.338-8.25,20.269-8.25c15.732,0,28.484,12.424,28.484,27.75V287.411z"/>
</g>
</svg>
